<?xml version="1.0" standalone="no"?>
<svg xmlns:xlink="http://www.w3.org/1999/xlink" id="wave" style="transform:rotate(180deg); transition: 0.3s" viewBox="0 0 1440 150" version="1.1" xmlns="http://www.w3.org/2000/svg"><defs><linearGradient id="sw-gradient-0" x1="0" x2="0" y1="1" y2="0"><stop stop-color="rgba(255, 249, 234, 1)" offset="0%"/><stop stop-color="rgba(255, 249, 234, 1)" offset="100%"/></linearGradient></defs><path style="transform:translate(0, 0px); opacity:1" fill="url(#sw-gradient-0)" d="M0,0L26.7,10C53.3,20,107,40,160,62.5C213.3,85,267,110,320,122.5C373.3,135,427,135,480,115C533.3,95,587,55,640,42.5C693.3,30,747,45,800,60C853.3,75,907,90,960,97.5C1013.3,105,1067,105,1120,107.5C1173.3,110,1227,115,1280,117.5C1333.3,120,1387,120,1440,122.5C1493.3,125,1547,130,1600,120C1653.3,110,1707,85,1760,80C1813.3,75,1867,90,1920,92.5C1973.3,95,2027,85,2080,70C2133.3,55,2187,35,2240,22.5C2293.3,10,2347,5,2400,17.5C2453.3,30,2507,60,2560,77.5C2613.3,95,2667,100,2720,105C2773.3,110,2827,115,2880,97.5C2933.3,80,2987,40,3040,32.5C3093.3,25,3147,50,3200,50C3253.3,50,3307,25,3360,15C3413.3,5,3467,10,3520,10C3573.3,10,3627,5,3680,20C3733.3,35,3787,70,3813,87.5L3840,105L3840,150L3813.3,150C3786.7,150,3733,150,3680,150C3626.7,150,3573,150,3520,150C3466.7,150,3413,150,3360,150C3306.7,150,3253,150,3200,150C3146.7,150,3093,150,3040,150C2986.7,150,2933,150,2880,150C2826.7,150,2773,150,2720,150C2666.7,150,2613,150,2560,150C2506.7,150,2453,150,2400,150C2346.7,150,2293,150,2240,150C2186.7,150,2133,150,2080,150C2026.7,150,1973,150,1920,150C1866.7,150,1813,150,1760,150C1706.7,150,1653,150,1600,150C1546.7,150,1493,150,1440,150C1386.7,150,1333,150,1280,150C1226.7,150,1173,150,1120,150C1066.7,150,1013,150,960,150C906.7,150,853,150,800,150C746.7,150,693,150,640,150C586.7,150,533,150,480,150C426.7,150,373,150,320,150C266.7,150,213,150,160,150C106.7,150,53,150,27,150L0,150Z"/></svg>